<svg xmlns="http://www.w3.org/2000/svg" width="1635" height="715" viewBox="0 0 1635 715">
 <g fill="white">
  <path d="M149.2 641.8 c-2.4 -1.3 -6.2 -4.2 -8.2 -6.6 -7.3 -8.6 -6.8 7.6 -7.1 -218.4 -0.3 -191.3 -0.2 -205 1.6 -213.5 5.1 -25.3 15.2 -44.1 33.3 -62 17.5 -17.2 41.1 -28.2 65.7 -30.5 7.8 -0.7 45.7 -1.1 109.3 -0.9 96.9 0.3 97.4 0.3 105.7 2.7 42 11.9 72.9 45.2 81.5 88.3 2.1 10.5 2.2 13.8 2.2 135.3 0 108.8 -0.2 125.6 -1.7 133.4 -4.9 26.1 -15.4 45.8 -34.2 63.9 -10.3 9.9 -15.6 13.6 -29.4 20.1 -19.3 9.2 -23.2 9.9 -59.6 10.5 -17.5 0.3 -32 0.4 -32.3 0.2 -0.2 -0.2 -0.4 -14.5 -0.4 -31.5 0 -17.1 -0.5 -33.7 -1.1 -36.8 -4.3 -22.6 -24.3 -37 -46.7 -33.8 -13.6 1.9 -25.9 11.5 -32.4 25.2 l-3.4 7.1 -0.5 35.1 -0.5 35.1 -12.2 0.6 c-27.3 1.4 -39.5 8.1 -65 35.2 -29.6 31.5 -36.4 38 -41.8 40.8 -6.9 3.5 -16.2 3.6 -22.8 0.4z m139.8 -231.8 c6.3 -2.9 10.8 -7 13.5 -12.7 2.3 -4.8 2.4 -6.1 2.4 -27.4 0 -26.2 -0.9 -29.7 -8.6 -36.5 -7 -6.3 -10.6 -6.9 -36.8 -6.5 l-22.8 0.4 -4.5 3 c-6 3.9 -10.4 10.3 -12 17.1 -1.8 8.1 -0.9 43.6 1.4 48.5 2.6 6 7.2 10.8 13.1 13.4 5 2.4 6.4 2.6 27.7 2.6 19.4 0 22.9 -0.3 26.6 -2z m142.6 0 c5.5 -2.6 9.4 -6.2 12.5 -11.9 2.3 -4.5 2.4 -5.5 2.4 -28.6 l0 -24 -3.3 -5.9 c-2.3 -4 -4.9 -6.8 -8.4 -9 l-5.1 -3.2 -22.5 -0.3 c-15.1 -0.2 -24 0.1 -27 1 -5.9 1.6 -13.2 8.2 -16.3 14.6 -2.3 4.8 -2.6 6.2 -2.4 26.8 0 18.4 0.3 22.5 1.8 26 3 6.8 6.7 10.9 12.7 13.8 5.4 2.8 5.9 2.8 28.4 2.8 20 0 23.5 -0.3 27.3 -2z m-144.3 -128.4 c6.5 -2.2 11.1 -6.2 14.6 -12.5 l3.1 -5.6 0 -22.9 c0 -21.8 -0.1 -23.1 -2.4 -27.9 -1.4 -2.9 -4.5 -6.8 -6.9 -8.8 -7.1 -6.2 -12.6 -7.1 -36.2 -6.7 -18.5 0.3 -20.9 0.5 -24.7 2.6 -5.4 3 -9.7 7.2 -12.7 12.7 -2.1 3.9 -2.2 5.7 -2.2 27.1 0 22.9 0 22.9 3 29 3.4 6.9 8.6 11.4 15.6 13.2 7.2 2 43.2 1.9 48.9 -0.1z m141.3 0 c6.8 -2 12.3 -6.7 15.5 -13 2.2 -4.7 2.4 -6.7 2.9 -24.8 0.2 -12.3 -0.1 -21.7 -0.9 -25.2 -1.8 -7.9 -6.5 -14.3 -13.1 -18 -5.4 -3 -6.2 -3.1 -22.7 -3.4 -28.8 -0.6 -37 1.7 -44.1 12.2 -4.3 6.3 -4.9 11.1 -4.9 33.4 0.1 18.5 0.1 18.7 3.2 24.9 3.7 7.3 9.2 12 16.2 13.9 7.5 2 41 1.9 47.8 -0.1z"/>
  <path d="M231.5 412.6 c-5.9 -2.7 -10.5 -7.5 -13.2 -13.4 -2.1 -4.9 -3.1 -46.6 -1.2 -55 1.5 -6.7 6 -13.1 11.9 -17 l4.5 -3 26 -0.3 c29.7 -0.4 32.9 0 40 6.4 8 6.9 8.6 10 8.6 39.7 0 24.6 -0.1 25.8 -2.4 30.5 -2.8 5.6 -7.2 9.8 -13.5 12.7 -3.7 1.7 -7.3 2 -29.8 2 -24.6 0 -25.8 -0.1 -30.9 -2.6z"/>
  <path d="M372.8 412.4 c-6 -3 -9.6 -6.9 -12.7 -13.8 -1.6 -3.5 -1.8 -7.7 -1.9 -29.2 0 -24.1 0.1 -25.2 2.4 -30 3.2 -6.4 10.5 -13 16.4 -14.6 3.1 -0.9 12.7 -1.2 30.2 -1 l25.7 0.3 5.1 3.2 c3.5 2.2 6.1 5 8.4 9 l3.3 5.9 0 27.1 c0 26.4 -0.1 27.3 -2.4 31.8 -3.1 5.7 -6.9 9.4 -12.5 11.9 -3.7 1.7 -7.2 2 -30.4 2 -26 0 -26.1 0 -31.6 -2.8z"/>
  <path d="M235.2 284.8 c-7 -1.8 -12.2 -6.3 -15.6 -13.2 l-3 -6.1 0 -26.1 c0 -24.7 0.1 -26.3 2.2 -30.3 3 -5.4 7.2 -9.7 12.7 -12.7 3.9 -2 6.1 -2.2 28 -2.6 27 -0.4 31.9 0.4 39.3 6.7 2.4 2 5.5 6 6.9 8.8 2.3 4.8 2.4 5.9 2.4 31.1 l0 26.1 -3.1 5.6 c-3.5 6.3 -8.1 10.2 -14.6 12.5 -5.7 2 -47.9 2.1 -55.2 0.1z"/>
  <path d="M377.6 284.8 c-7 -1.9 -12.5 -6.6 -16.2 -13.9 l-3.2 -6.4 0 -21.8 c0 -25.5 0.6 -30 4.9 -36.5 7.1 -10.9 14.8 -12.8 47.2 -12.2 20.2 0.3 20.3 0.3 26 3.4 6.6 3.7 11.3 10.1 13 18 0.9 3.5 1.2 13.7 0.9 28.4 -0.3 21.4 -0.4 23.2 -2.8 28 -3.2 6.3 -8.7 11 -15.5 13 -6.9 2.1 -46.6 2.1 -54.2 0.1z"/>
  <path d="M645.1 405.7 c0 -1.7 7.6 -20.1 16.8 -41 l16.7 -38 4.2 0.3 c4 0.3 4.4 0.5 6.6 6.2 1.3 3.3 8.6 19.9 16.3 37 9.4 20.8 13.9 32.3 13.9 34.8 l0 3.7 -37.3 0 -37.3 0 0 -3.1z"/>
  <path d="M1076.7 462.9 c-9.6 -1.4 -17.2 -3.9 -26.1 -8.5 -19.3 -10 -31.9 -24.6 -39 -45.1 -2.7 -7.7 -3 -10 -3 -23.4 -0.1 -12.8 0.2 -16.1 2.3 -22.9 8.2 -26.1 27.4 -44.9 54.5 -53.3 7 -2.2 10.1 -2.6 25.5 -2.6 20.5 0 26.2 1.2 41 8.4 8.6 4.3 22.4 14.8 21.6 16.5 -0.2 0.3 -5.2 5.4 -11.2 11.2 l-10.9 10.5 -4.9 -4.5 c-13.9 -12.9 -37.6 -16.4 -55.5 -8.2 -8.5 3.9 -12.6 7.2 -18.1 14.7 -6.8 9.4 -9.4 18.3 -8.7 31.5 0.7 16.2 6.5 27.6 18.4 36.6 9.2 6.9 15.1 8.7 29.8 8.7 11.4 0.1 13.4 -0.2 19.2 -2.7 l6.4 -2.7 0.3 -22 0.2 -22 16.5 0 16.5 0 0 30.2 0 30.1 -5.6 3.8 c-20.1 13.3 -45.6 18.9 -69.4 15.5z"/>
  <path d="M1469.5 463.4 c-12.8 -1.6 -36 -9.2 -39 -12.7 -1 -1.2 -0.2 -3.7 3.8 -12.5 2.8 -6 5.2 -11.1 5.3 -11.3 0.2 -0.2 4.6 1.4 9.6 3.6 23.8 10.2 51.6 8.7 51.6 -2.9 0 -3.2 -2.9 -6.8 -6.8 -8.2 -1.3 -0.5 -9.8 -2.4 -18.8 -4.3 -21.4 -4.2 -27.7 -6.6 -34.7 -13.4 -6.6 -6.5 -9.5 -14.3 -8.5 -24 1.4 -16.1 12.5 -27.8 30.9 -32.7 10.1 -2.8 36.8 -2.4 47.8 0.5 10.9 3 18.9 6.5 18.9 8.3 0 0.9 -2.3 6.3 -5.3 12 l-5.2 10.5 -6.5 -2.7 c-21.1 -8.4 -46.3 -7 -47.7 2.9 -1.2 7.6 2 9.4 23.4 13.8 28.2 6 36.8 10.1 42.3 20.8 2.3 4.5 2.8 6.7 2.8 14.9 0 8.6 -0.3 10.1 -3.1 15.2 -6.1 10.9 -17.7 18.2 -33.3 21 -7.8 1.4 -20.1 1.8 -27.5 0.9z"/>
  <path d="M801.5 462.3 c-13.2 -2.3 -33 -10.8 -33 -14.1 0.1 -2.9 5.7 -12.3 7.7 -12.7 1 -0.2 3.6 0.9 5.9 2.3 11.6 7.6 35.7 11.4 48.5 7.7 11.3 -3.3 17.6 -12.1 14.3 -20 -3.1 -7.1 -6.8 -8.9 -28.8 -13.6 -20.8 -4.4 -29.2 -7.6 -35.8 -13.5 -6.4 -5.7 -9 -12.1 -8.9 -21.4 0.3 -15 10.3 -26 27.8 -30.5 8 -2.1 29.5 -2.1 38.3 0 6.9 1.6 19.8 7 20.9 8.6 0.3 0.5 -1.1 3.9 -3.2 7.6 l-3.7 6.7 -6.1 -3.1 c-10.5 -5.3 -17.1 -6.8 -29.8 -6.3 -9.6 0.3 -12.2 0.7 -16.5 3 -7.1 3.6 -9.7 7.3 -9.7 14.1 0 9.7 6.7 13.5 34.5 19.5 23.1 4.9 31.2 9.3 36.5 19.6 5.7 11 3.3 25.3 -6 34.5 -4.5 4.5 -14.8 9.6 -22.8 11.3 -5.4 1.2 -24.5 1.4 -30 0.4z"/>
  <path d="M605 458.6 c0.9 -1.9 6 -13.1 11.3 -24.8 5.4 -11.7 13.1 -28.4 17 -37.3 3.9 -8.7 11.4 -25 16.5 -36.2 5 -11.1 12.3 -27.3 16.2 -35.9 l7 -15.8 9.7 0 9.7 0.1 9.3 20.4 c21.1 46.6 55 120.9 57.6 126 1.6 3.1 2.9 5.9 2.9 6.2 0 0.3 -4.5 0.5 -10 0.5 l-10 0 -8.8 -19.7 -8.9 -19.7 -41.8 0.2 -41.8 0.3 -8.6 19.5 -8.6 19.4 -10 0 -9.9 0 1.5 -3.4z m111.3 -53.5 c0 -0.3 -6.3 -14.6 -13.9 -31.6 -7.7 -17.1 -15 -33.7 -16.3 -36.9 -1.3 -3.2 -2.8 -6 -3.3 -6.2 -1 -0.2 -5.1 8.8 -27.8 60.1 l-6.7 15.1 34.1 0 c18.6 0 34 -0.2 34 -0.5z"/>
  <path d="M888.8 381.1 l0 -80.9 9 0 9 0 0 52.7 c0 29 0.2 52.7 0.5 52.7 0.4 0 13.5 -12.2 29.3 -27.3 38.1 -36.2 34.3 -33.4 46.4 -33.4 5.5 0 10 0.4 10 1 0 0.5 -10.5 11.2 -23.4 23.7 -12.9 12.5 -23.2 23.2 -23 24 0.3 0.6 11.4 15.2 24.8 32.3 13.3 17.1 25.1 32.3 26.2 33.6 l2 2.6 -11.2 0 -11.1 0 -22 -28.2 c-12.1 -15.5 -22.2 -28.2 -22.6 -28.2 -0.3 0 -6.3 5.3 -13.3 11.9 l-12.7 11.9 0 16.3 0 16.3 -9 0 -9 0 0 -80.9z"/>
  <path d="M1180.5 403.4 l0 -58.5 16.5 0 16.5 0 0 58.5 0 58.5 -16.5 0 -16.5 0 0 -58.5z"/>
  <path d="M1244.6 381.4 l0.3 -80.7 16.8 -0.3 16.7 -0.3 0 81 0 80.9 -17 0 -17 0 0.2 -80.6z"/>
  <path d="M1309.3 381.1 l0 -80.9 17 0 17 0 0 80.9 0 80.9 -17 0 -17 0 0 -80.9z"/>
  <path d="M1374.2 403.4 l0 -58.5 16.5 0 16.5 0 0.2 54.3 c0.1 29.9 0.2 56.1 0.3 58.3 l0 3.9 -16.7 0.3 -16.8 0.3 0 -58.7z"/>
  <path d="M1385.6 327.9 c-10.4 -2 -17.7 -13.5 -14.7 -23.4 2.7 -8.8 9.9 -13.7 20.4 -13.8 11.2 0 19.5 8.2 19.4 19.3 -0.2 12.5 -11.5 20.7 -25.1 18z"/>
  <path d="M1186 325.1 c-10 -6 -11.8 -19.8 -3.6 -28.5 3.8 -4 8.6 -6 15.1 -6 20.3 0 27.6 24.9 10.1 34.8 -6.2 3.5 -15.4 3.4 -21.6 -0.3z"/>
 </g>
</svg>
